<svg width="30" height="30" fill="none" xmlns="http://www.w3.org/2000/svg"><path d="M15 0c-4.078 0-4.586.02-6.182.087-1.602.079-2.686.327-3.642.699a7.376 7.376 0 00-2.657 1.733A7.273 7.273 0 00.786 5.176c-.372.956-.62 2.04-.699 3.642C.015 10.415 0 10.922 0 15s.02 4.586.087 6.182c.079 1.597.327 2.686.699 3.642a7.376 7.376 0 001.733 2.657 7.273 7.273 0 002.657 1.733c.956.367 2.045.62 3.642.699 1.597.072 2.104.087 6.182.087s4.586-.02 6.182-.087c1.597-.079 2.686-.333 3.642-.699a7.376 7.376 0 002.657-1.733 7.235 7.235 0 001.733-2.657c.367-.956.62-2.045.699-3.642.072-1.597.087-2.104.087-6.182s-.02-4.586-.087-6.182c-.079-1.597-.333-2.692-.699-3.642a7.376 7.376 0 00-1.733-2.657A7.235 7.235 0 0024.824.786c-.956-.372-2.045-.62-3.642-.699C19.585.015 19.078 0 15 0zm0 2.7c4.005 0 4.483.02 6.065.088 1.46.068 2.255.312 2.783.518a4.67 4.67 0 011.73 1.122 4.643 4.643 0 011.117 1.725c.206.528.45 1.323.518 2.782.068 1.583.088 2.062.088 6.066s-.02 4.483-.093 6.065c-.079 1.46-.323 2.255-.528 2.783a4.877 4.877 0 01-1.124 1.73 4.731 4.731 0 01-1.73 1.117c-.52.206-1.327.45-2.792.518-1.592.068-2.06.088-6.075.088-4.015 0-4.483-.02-6.076-.093-1.46-.079-2.265-.323-2.793-.528-.713-.284-1.201-.601-1.724-1.124-.528-.528-.864-1.03-1.123-1.73-.21-.52-.45-1.327-.528-2.793-.053-1.572-.078-2.06-.078-6.056 0-3.994.025-4.482.078-6.074.078-1.466.318-2.27.528-2.794.259-.713.596-1.2 1.123-1.729.522-.522 1.011-.86 1.724-1.124.528-.205 1.313-.449 2.779-.522 1.591-.057 2.06-.078 6.07-.078L15 2.7zm0 4.601a7.697 7.697 0 00-7.7 7.7 7.698 7.698 0 0010.647 7.116 7.698 7.698 0 004.168-10.063A7.696 7.696 0 0015 7.302zm0 12.701c-2.764 0-5-2.236-5-5s2.236-5 5-5 5 2.236 5 5-2.236 5-5 5zm9.811-13.008a1.803 1.803 0 01-3.075 1.274 1.798 1.798 0 011.272-3.072c.991 0 1.803.807 1.803 1.798z" fill="#fff" fill-opacity=".9"/></svg>