<svg width="35" height="35" fill="none" xmlns="http://www.w3.org/2000/svg"><path d="M17.484 0C7.824-.004 0 7.816 0 17.469c0 7.633 4.895 14.12 11.71 16.504.919.23.778-.422.778-.867v-3.028c-5.3.621-5.515-2.887-5.87-3.473-.72-1.226-2.419-1.539-1.911-2.125 1.207-.62 2.438.157 3.863 2.262 1.032 1.528 3.043 1.27 4.063 1.016a4.932 4.932 0 011.355-2.375c-5.492-.985-7.781-4.336-7.781-8.32 0-1.934.637-3.711 1.887-5.145-.797-2.363.074-4.387.191-4.688 2.27-.203 4.63 1.625 4.813 1.77 1.289-.348 2.761-.531 4.41-.531 1.656 0 3.133.191 4.433.543.442-.336 2.63-1.907 4.739-1.715.113.3.965 2.277.215 4.61 1.265 1.437 1.91 3.23 1.91 5.167 0 3.992-2.305 7.348-7.813 8.317a4.984 4.984 0 011.488 3.554v4.395c.032.351 0 .7.586.7 6.918-2.333 11.899-8.868 11.899-16.567C34.965 7.816 27.137 0 17.485 0z" fill="#000"/></svg>