<svg width="537" height="684" fill="none" xmlns="http://www.w3.org/2000/svg"><path d="M438.527 282.017c-51.908 49.046-102.856 9.636-126.214-17.382-23.359-27.019-10.282-31.414 41.626-80.46 51.908-49.046 112.923-66.903 136.282-39.885 23.358 27.019.214 88.681-51.694 137.727z" fill="#000"/><path d="M438.527 282.017c-51.908 49.046-102.856 9.636-126.214-17.382-23.359-27.019-10.282-31.414 41.626-80.46 51.908-49.046 112.923-66.903 136.282-39.885 23.358 27.019.214 88.681-51.694 137.727z" fill="#000"/><path d="M438.527 282.017c-51.908 49.046-102.856 9.636-126.214-17.382-23.359-27.019-10.282-31.414 41.626-80.46 51.908-49.046 112.923-66.903 136.282-39.885 23.358 27.019.214 88.681-51.694 137.727z" fill="#000"/><path d="M351.533 245.948c2.072 71.222 19.397 14.173-16.3 16.931-35.696 2.758-34.903-10.991-109.918-26.244-2.073-71.222 22.134-111.894 57.83-114.652 35.697-2.758 66.315 52.743 68.388 123.965z" fill="#000"/><path d="M351.533 245.948c2.072 71.222 19.397 14.173-16.3 16.931-35.696 2.758-34.903-10.991-109.918-26.244-2.073-71.222 22.134-111.894 57.83-114.652 35.697-2.758 66.315 52.743 68.388 123.965z" fill="#000"/><path d="M351.533 245.948c2.072 71.222 19.397 14.173-16.3 16.931-35.696 2.758-34.903-10.991-109.918-26.244-2.073-71.222 22.134-111.894 57.83-114.652 35.697-2.758 66.315 52.743 68.388 123.965z" fill="#000"/><path d="M153.666 201.244L427.104 322.34c35.854 15.878 52.047 57.815 36.169 93.669L350.23 671.262 76.792 550.166c-35.854-15.879-52.047-57.816-36.168-93.669l113.042-255.253z" stroke="#000" stroke-width="18"/><path d="M238.025 321.811l-79.14 178.7-23.298-10.317 79.14-178.7 23.298 10.317zm179.898 79.671l-9.638 21.761-61.7-27.325-69.502 156.939-23.298-10.318 69.503-156.938-61.7-27.325 9.637-21.761 146.698 64.967z" fill="#000"/></svg>