<svg width="38" height="36" fill="none" xmlns="http://www.w3.org/2000/svg"><path d="M17.86 7.367c2.825 0 5.487 1.252 7.438 3.21v.005c0-.94.632-1.65 1.506-1.65h.222c1.38 0 1.656 1.3 1.656 1.71l.006 14.61c-.096.957.988 1.452 1.59.837 2.342-2.409 5.148-12.394-1.457-18.175-6.16-5.396-14.43-4.505-18.825-1.475-4.673 3.228-7.66 10.358-4.758 17.06 3.168 7.306 12.225 9.486 17.615 7.312 2.73-1.102 3.987 2.582 1.15 3.788-4.274 1.823-16.187 1.637-21.75-7.998-3.76-6.508-3.56-17.958 6.413-23.89C16.29-1.828 26.347-.57 32.411 5.76c6.336 6.624 5.97 19.018-.216 23.836-2.802 2.191-6.962.06-6.932-3.132l-.031-1.041c-1.95 1.932-4.547 3.065-7.371 3.065-5.588 0-10.508-4.92-10.508-10.503 0-5.643 4.92-10.616 10.508-10.616v-.002zm7.03 10.214c-.212-4.09-3.247-6.552-6.915-6.552h-.139c-4.227 0-6.575 3.33-6.575 7.105 0 4.233 2.836 6.906 6.558 6.906 4.155 0 6.882-3.04 7.08-6.636l-.01-.823z" fill="#000"/></svg>