<svg xmlns="http://www.w3.org/2000/svg" viewBox="0 0 57.006 57.006"><path d="M20.521 35.366v-2.36h1a1 1 0 100-2h-18a1 1 0 100 2h1v2.36c0 3.535 1.845 6.748 4.827 8.64-2.981 1.892-4.827 5.105-4.827 8.64v2.36h-1a1 1 0 100 2h18a1 1 0 100-2h-1v-2.36c0-3.535-1.845-6.748-4.827-8.64 2.981-1.892 4.827-5.105 4.827-8.64zm-2 17.279v2.36h-12v-2.36c0-3.319 2.033-6.298 5.197-7.64h1.605c3.165 1.342 5.198 4.321 5.198 7.64zm-5.198-9.639h-1.605c-3.164-1.342-5.197-4.32-5.197-7.64v-2.36h12v2.36c0 3.319-2.033 6.298-5.198 7.64z"/><path d="M54.883 40.91c-2.008-3.796-8.981-7.912-9.288-8.092-1.277-.727-2.6-.954-3.721-.646-.845.234-1.532.768-1.995 1.546-1.02 1.22-2.285 2.646-2.592 2.867-2.371 1.604-4.252 1.414-6.295-.629L19.506 24.469c-2.045-2.045-2.233-3.928-.631-6.292.224-.31 1.649-1.575 2.869-2.595.778-.464 1.312-1.151 1.546-1.996.311-1.123.081-2.444-.653-3.731-.173-.296-4.289-7.269-8.085-9.276a4.905 4.905 0 00-5.796.872L6.219 3.987C.187 10.02-.012 17.39 5.646 25.302a1 1 0 001.627-1.165c-5.156-7.209-5.037-13.337.36-18.736l2.537-2.536a2.918 2.918 0 013.446-.519c3.294 1.743 7.256 8.453 7.289 8.51.449.787.62 1.608.457 2.196-.1.36-.323.634-.684.836l-.15.104c-.853.712-2.883 2.434-3.308 3.062-.612.904-1.018 1.793-1.231 2.666-.711-1.418-1.286-3.061-1.475-4.881a1 1 0 10-1.991.207c.722 6.953 6.13 11.479 6.359 11.668.026.021.056.029.083.047l10.61 10.61c.044.044.089.083.134.126.036.052.059.111.106.157.189.187 4.704 4.567 11.599 5.283a1.001 1.001 0 00.206-1.99c-2.115-.219-3.988-.839-5.55-1.559.766-.23 1.545-.612 2.334-1.146.628-.425 2.35-2.455 3.062-3.308l.104-.151c.202-.359.475-.583.835-.683.586-.165 1.408.007 2.186.45 1.879 1.102 7.073 4.559 8.521 7.296a2.919 2.919 0 01-.519 3.445l-2.537 2.537c-5.393 5.392-11.791 5.446-19.016.159a1 1 0 00-1.181 1.613c3.935 2.88 7.733 4.317 11.306 4.317 3.718 0 7.189-1.56 10.306-4.676l2.537-2.537a4.9 4.9 0 00.875-5.794z"/></svg>