<svg xmlns="http://www.w3.org/2000/svg" viewBox="0 0 496 496"><path d="M384 128C384 57.424 326.576 0 256 0S128 57.424 128 128c0 61.432 44.264 114.104 104 125.488v13.216A27.81 27.81 0 00220 264c-7.832 0-14.912 3.224-20 8.424-5.088-5.2-12.168-8.424-20-8.424-12.44 0-23.008 8.152-26.648 19.392A27.855 27.855 0 00140 280c-15.44 0-28 12.56-28 28v84.112a48.632 48.632 0 003.504 18.184l10.144 25.344A33.081 33.081 0 01128 447.888V496h16v-48.112a48.632 48.632 0 00-3.504-18.184l-10.144-25.344A33.081 33.081 0 01128 392.112V308c0-6.616 5.384-12 12-12s12 5.384 12 12v4h16v-20c0-6.616 5.384-12 12-12s12 5.384 12 12v20h16v-20c0-6.616 5.384-12 12-12s12 5.384 12 12v20h16V156c0-6.616 5.384-12 12-12s12 5.384 12 12v188h16v-48h5.576a26.267 26.267 0 0114.656 4.44A26.346 26.346 0 01320 322.424v76.608c0 8.68-3.52 17.168-9.656 23.312-9.248 9.248-14.344 21.544-14.344 34.624V496h16v-39.032c0-8.68 3.52-17.168 9.656-23.312 9.248-9.248 14.344-21.544 14.344-34.624v-76.608a42.337 42.337 0 00-18.888-35.296A42.252 42.252 0 00293.576 280H288v-28.16c55.976-14.448 96-65.44 96-123.84zM232 237.232C181.24 226.128 144 180.72 144 128c0-61.76 50.24-112 112-112s112 50.24 112 112c0 49.728-33.104 93.392-80 107.352v-72.888L353.104 128 192 42.712v170.576l40-21.184v45.128zm53.904-91.76C281.736 135.24 271.712 128 260 128c-15.44 0-28 12.56-28 28v18.008l-24 12.704V69.288L318.896 128l-32.992 17.472z"/></svg>