<svg viewBox="0 0 192 210.043" xmlns="http://www.w3.org/2000/svg"><path d="M116.004 0H75.996C34.092 0 0 34.086 0 75.98v36.04c0 31.199 19.172 59.238 48 70.66v23.363a3.998 3.998 0 004 4 4 4 0 002.686-1.035L77.879 188h38.125C157.908 188 192 153.914 192 112.02V75.98C192 34.086 157.908 0 116.004 0zM184 112.02c0 37.484-30.502 67.98-67.996 67.98H76.336c-.992 0-1.95.367-2.686 1.035L56 197.024v-17.118a3.994 3.994 0 00-2.668-3.77C26.219 166.552 8 140.787 8 112.02V75.98C8 38.496 38.502 8 75.996 8h40.008C153.498 8 184 38.496 184 75.98v36.04z"/><path d="M148.863 121.973l-24.586-15.969a11.987 11.987 0 00-9.021-1.692 11.902 11.902 0 00-7.58 5.212l-1.156 1.777c-10.641-3.516-22.374-8.008-29.397-28.34l2.908-2.527h.002c4.99-4.34 5.516-11.934 1.174-16.934L61.975 41.375a4.005 4.005 0 00-5.645-.395L44.256 51.476c-10.594 9.208-5.643 22.829-4.016 27.305.072.2.16.391.264.578.42.754 10.45 18.649 26.642 35.145 16.26 16.562 45.618 31.86 46.518 32.304a19.89 19.89 0 0010.856 3.22c6.55 0 12.976-3.212 16.806-9.102l8.713-13.418a4.003 4.003 0 00-1.176-5.535zm-14.246 14.593c-3.605 5.551-11.05 7.13-16.933 3.336-.293-.152-29.456-15.34-44.828-31-14.368-14.636-23.907-30.894-25.21-33.164-3.17-8.882-2.609-14.344 1.856-18.222l9.058-7.872L75.168 68.75c1.474 1.695 1.305 4.176-.385 5.644l-4.908 4.266a3.997 3.997 0 00-1.2 4.196c8.37 27.19 24.641 32.53 36.522 36.433l1.73.57a3.978 3.978 0 004.62-1.613l2.838-4.367a3.957 3.957 0 012.52-1.735 3.978 3.978 0 013.013.57l21.232 13.79-6.533 10.062zm-29.488-71.578a3.99 3.99 0 00-4.943 2.754 4.002 4.002 0 002.752 4.942c5.96 1.695 10.706 6.453 12.388 12.418a4.002 4.002 0 004.936 2.765 4.002 4.002 0 002.763-4.937c-2.427-8.618-9.287-15.492-17.896-17.942z"/><path d="M135.57 88.875a4.002 4.002 0 003.852-5.086c-4.719-16.73-18.037-30.078-34.756-34.836-2.125-.613-4.338.633-4.941 2.754a4.001 4.001 0 002.753 4.941c14.067 4 25.274 15.235 29.245 29.313a4.002 4.002 0 003.847 2.914z"/><path d="M102.943 30.328A3.99 3.99 0 0098 33.082a4.002 4.002 0 002.752 4.942c23.838 6.78 42.824 25.812 49.55 49.664a4.001 4.001 0 004.936 2.765 4.004 4.004 0 002.764-4.937c-7.475-26.504-28.572-47.649-55.059-55.188z"/></svg>