<svg xmlns="http://www.w3.org/2000/svg" viewBox="0 0 60 60"><path d="M30.5 0C14.233 0 1 13.233 1 29.5a29.47 29.47 0 003.896 14.65L.051 58.684a1 1 0 001.203 1.283l15.867-4.175A29.578 29.578 0 0030.5 59C46.767 59 60 45.767 60 29.5S46.767 0 30.5 0zm0 57c-3.468 0-6.919-.672-10.132-1.945l4.849-1.079a1 1 0 00-.434-1.953l-7.76 1.727c-.007.002-.012.007-.019.008-.006.002-.012 0-.018.001L2.533 57.563l4.403-13.209a1.001 1.001 0 00-.089-.827A27.47 27.47 0 013 29.5C3 14.337 15.336 2 30.5 2S58 14.337 58 29.5 45.664 57 30.5 57z"/><path d="M49.567 38.517c-1.408-2.661-6.025-5.42-6.557-5.732-.957-.544-1.956-.715-2.813-.477a2.61 2.61 0 00-1.552 1.188c-.676.808-1.517 1.756-1.718 1.912-1.514 1.024-2.665.91-3.974-.398l-7.962-7.962c-1.309-1.31-1.425-2.461-.409-3.96.167-.215 1.114-1.057 1.922-1.732a2.597 2.597 0 001.188-1.552c.238-.857.068-1.857-.483-2.824-.306-.521-3.064-5.139-5.726-6.547a3.704 3.704 0 00-4.377.659l-1.759 1.759c-2.862 2.861-3.897 6.11-3.077 9.657.675 2.921 2.634 6.019 5.823 9.206l10.193 10.193c3.188 3.188 6.286 5.147 9.207 5.823.785.182 1.556.272 2.311.272 2.655 0 5.118-1.121 7.346-3.35l1.758-1.759a3.703 3.703 0 00.659-4.376zm-2.073 2.963l-1.758 1.759c-2.374 2.375-4.922 3.205-7.792 2.543-2.551-.59-5.324-2.37-8.244-5.289L19.507 30.3c-2.919-2.919-4.699-5.692-5.289-8.243-.664-2.869.168-5.418 2.542-7.792l1.759-1.759a1.716 1.716 0 012.028-.306c1.83.969 4.184 4.509 4.93 5.78.268.47.377.963.287 1.289-.047.171-.148.292-.328.393l-.151.104c-.747.622-2.045 1.734-2.35 2.185a6.754 6.754 0 00-.64 1.201 9.236 9.236 0 01-.676-2.596c-.057-.549-.55-.934-1.098-.892a1.002 1.002 0 00-.892 1.099c.513 4.943 4.354 8.159 4.518 8.293.016.013.035.017.051.029l7.34 7.339c.028.028.057.048.086.075.03.04.046.086.082.122.134.133 3.339 3.241 8.224 3.749a1.001 1.001 0 00.206-1.99 11.664 11.664 0 01-3.069-.763c.324-.151.65-.329.979-.552.452-.305 1.563-1.604 2.186-2.351l.104-.15c.101-.18.222-.281.394-.328.324-.094.819.02 1.278.28 1.282.752 4.82 3.103 5.791 4.937a1.714 1.714 0 01-.305 2.027z"/></svg>