<svg width="88" height="190" fill="none" xmlns="http://www.w3.org/2000/svg"><path d="M28.67 84.48a5.474 5.474 0 017.52 1.87c1.56 2.59.73 5.96-1.87 7.52A5.474 5.474 0 0126.8 92c-1.56-2.58-.72-5.95 1.87-7.52z" fill="#FCC9A7"/><path d="M34.88 84.87c-.18-.14-9.8-11.44-9.8-11.44l-3.93 4.76 8.68 10.99 5.05-4.31zm-8.11 88.1l-2.45 11.19-7.74-1.16 2.5-11.04 7.69 1.01zm34.7-1l.09 11.46-7.79.58-.02-11.32 7.72-.72z" fill="#FCC9A7"/><path d="M25.3 182.34a.743.743 0 00-1.14-.37c-.8.58-2.21 1.26-4.25 1.02-2.12-.25-2.88-1.37-3.14-2.17a.761.761 0 00-1-.48L2.64 185.6c-.8.32-1.44.94-1.77 1.73-.32.74.22 1.57 1.03 1.57l22.31.16c.88.01 1.58-.72 1.54-1.6l-.19-4.31c0-.07-.02-.14-.04-.21l-.22-.6zm27.68 0c.16-.47.74-.67 1.14-.37.8.58 2.21 1.26 4.25 1.02 2.12-.25 2.87-1.37 3.14-2.17.14-.42.59-.64 1-.48l13.13 5.26c.8.32 1.44.94 1.77 1.73.32.74-.22 1.57-1.03 1.57l-22.31.16c-.88.01-1.58-.72-1.54-1.6l.19-4.31c0-.07.02-.14.04-.21l.22-.6z" fill="#0C0C0C"/><path d="M52.88 28.3l-6.93.6-11.02 6.21v44.16h29.41V35.11L52.88 28.3z" fill="#54585A"/><path d="M50.98 32.75h-1.99a3.73 3.73 0 01-3.73-3.73v-7.48h9.44v7.48a3.715 3.715 0 01-3.72 3.73z" fill="#FCC9A7"/><path d="M45.26 25.35s1.47 2.95 4.81 2.95 4.63-3.01 4.63-3.01l-9.44.06z" fill="#F4BE9A"/><path d="M50.09 26.57h-.31c-4.81 0-8.77-3.8-8.96-8.61l-.17-4.79c-.2-5.09 3.87-9.32 8.96-9.32h.65c3.85 0 9.16 4.23 8.96 9.32l-.17 4.79c-.19 4.81-4.15 8.61-8.96 8.61z" fill="#FCC9A7"/><path d="M43.57 16.8a2.934 2.934 0 01-2.73 3.13 2.935 2.935 0 01-3.13-2.73 2.935 2.935 0 012.73-3.13c1.62-.1 3.02 1.12 3.13 2.73zm18.58 0a2.935 2.935 0 01-2.73 3.13 2.935 2.935 0 01-3.13-2.73 2.935 2.935 0 012.73-3.13c1.62-.1 3.02 1.12 3.13 2.73z" fill="#FCC9A7"/><path d="M34.93 79.06l-18.29 97.23 10.51-.1 26.74-96.94-18.96-.19z" fill="#0C0C0C"/><path d="M64.34 79.27l-1.15 97.12H52.08l-4.43-96.51 16.69-.61z" fill="#0C0C0C"/><path d="M34.93 35.11S10.37 49.93 4.4 60.21c-1.17 2.01.35 4.61 2.41 5.68a4.84 4.84 0 006.4-1.83l22.72-13.18c.01 0-1-11.32-1-15.77z" fill="#54585A"/><path d="M40.14 7.73l.69 7.36h1.11l.14-3.86s.58-1.48 3.17-4.66c0 0 1.69 4.32 12.16 3.48l.61 4.88 1.08-.12.57-5.24c.38-1.77.51-3.42.19-5.2-.65-3.6-3.58-5.59-12.04-3.05-.7.21.73.07 0 0-2.42-.27-8.8-.3-7.68 6.41z" fill="#2E2A33"/><path d="M52.6 78.57l-2.38 25.46c-.09.96.56 1.83 1.51 2.01l29.2 5.58a1.87 1.87 0 002.21-1.63l2.67-24.2c.1-.94-.51-1.81-1.44-2.03l-29.49-6.84c-1.1-.26-2.17.52-2.28 1.65z" fill="#AFAFAF"/><path d="M54.22 79.02l-2.38 25.46c-.09.96.56 1.83 1.51 2.01l29.2 5.58c1.07.2 2.09-.55 2.21-1.63l2.67-24.2c.1-.94-.51-1.81-1.44-2.03L56.5 77.37c-1.09-.26-2.17.52-2.28 1.65z" fill="#D1D1D1"/><path d="M69.42 105.01c2.9.86 4.56 3.91 3.7 6.81a5.496 5.496 0 01-6.81 3.71 5.496 5.496 0 01-3.71-6.81c.87-2.91 3.91-4.57 6.82-3.71z" fill="#FCC9A7"/><path d="M73.33 109.85c-.02-.23-.96-15.49-.96-15.49l-5.19.94.69 13.01 5.46 1.54z" fill="#FCC9A7"/><path d="M64.34 35.11s7.86 5.63 8.36 13.65l2.46 18.75c.14 1.1.2 2.2.16 3.31l-.95 28.52H63.58l-.2-30.87.96-33.36z" fill="#54585A"/><path d="M46.78 28.3c-.84.61-4.89 2.89-4.89 2.89s.11 5.7 8.69 5.24c7.55-.4 7.5-5.03 7.5-5.03l-5.21-3.1h-6.09z" fill="#FCC9A7"/><path d="M16.5 56.51l14.68 23.46-6.96 6.59L4.44 63.47l12.06-6.96z" fill="#54585A"/><path d="M63.37 78.96v-10.5l-2.44-19.15" stroke="#424647" stroke-width=".769" stroke-miterlimit="10" stroke-linecap="round" stroke-linejoin="round"/></svg>