<svg xmlns="http://www.w3.org/2000/svg" viewBox="0 0 496.016 496.016"><g fill="#1c769b"><path d="M.008 248c0 98.16 57.04 183 139.768 223.184L21.472 147.072C7.728 177.904.008 212.04.008 248zm252.352 21.688l-74.416 216.224c22.232 6.536 45.712 10.104 70.064 10.104 28.872 0 56.576-4.992 82.352-14.056-.656-1.072-1.272-2.184-1.768-3.416L252.36 269.688z"/><path d="M415.432 235.496c0-30.664-11.024-51.88-20.448-68.392-12.584-20.456-24.376-37.752-24.376-58.168 0-22.808 17.288-44.032 41.648-44.032 1.104 0 2.144.152 3.2.208C371.368 24.68 312.568 0 248.008 0c-86.656 0-162.864 44.456-207.2 111.776 5.824.184 11.304.304 15.952.304 25.928 0 66.104-3.152 66.104-3.152 13.36-.8 14.928 18.856 1.568 20.424 0 0-13.432 1.584-28.384 2.376l90.312 268.616 54.28-162.768-38.616-105.848c-13.376-.792-26.032-2.376-26.032-2.376-13.36-.792-11.8-21.216 1.584-20.424 0 0 40.952 3.152 65.32 3.152 25.936 0 66.096-3.152 66.096-3.152 13.376-.8 14.944 18.856 1.576 20.424 0 0-13.448 1.584-28.376 2.376l89.624 266.576 24.76-82.648c10.68-34.32 18.856-58.944 18.856-80.16zm51.88-80.976c0 25.16-4.704 53.448-18.872 88.832l-75.744 219c73.728-42.976 123.312-122.864 123.312-214.344 0-43.128-11.016-83.664-30.376-118.992 1.08 7.904 1.68 16.368 1.68 25.504z"/></g><path d="M370.616 108.928c0-22.808 17.288-44.032 41.648-44.032 1.104 0 2.144.152 3.2.208C371.368 24.68 312.568 0 248.008 0c-86.656 0-162.864 44.456-207.2 111.776 5.824.184 11.304.304 15.952.304 25.928 0 66.104-3.152 66.104-3.152 13.36-.8 14.928 18.856 1.568 20.424 0 0-13.432 1.584-28.384 2.376l34.44 102.432c23.432 8.272 48.816 12.824 75.328 12.824 11.032 0 21.872-.792 32.472-2.304l2.36-7.096-38.616-105.848C188.656 130.944 176 129.36 176 129.36c-13.36-.792-11.8-21.216 1.584-20.424 0 0 40.952 3.152 65.32 3.152 25.936 0 66.096-3.152 66.096-3.152 13.376-.8 14.944 18.856 1.576 20.424 0 0-13.448 1.584-28.376 2.376l29.84 88.768c30.288-16.288 55.952-39.288 74.664-66.88-9.016-14.968-16.088-28.904-16.088-44.696z" fill="#2795b7"/><path d="M248.008 0c-77.816 0-147.128 35.92-192.6 91.984 39.912 8.296 83.744 12.896 129.744 12.896 87.104 0 166.464-16.456 226.136-43.448C367.672 23.216 310.56 0 248.008 0z" fill="#3fb5d1"/></svg>