<svg width="39" height="39" fill="none" xmlns="http://www.w3.org/2000/svg"><path d="M19.2 0C8.596 0 0 8.596 0 19.2s8.596 19.2 19.2 19.2 19.2-8.596 19.2-19.2S29.804 0 19.2 0zm-4.7 27.158h-3.888V14.646H14.5v12.512zM12.532 13.11c-1.228 0-2.022-.87-2.022-1.946 0-1.098.818-1.942 2.072-1.942s2.022.844 2.046 1.942c0 1.076-.792 1.946-2.096 1.946zM28.7 27.158h-3.888v-6.934c0-1.614-.564-2.71-1.97-2.71-1.074 0-1.712.742-1.994 1.456-.104.254-.13.614-.13.972v7.214h-3.89v-8.52c0-1.562-.05-2.868-.102-3.992h3.378l.178 1.738h.078c.512-.816 1.766-2.02 3.864-2.02 2.558 0 4.476 1.714 4.476 5.398v7.398z" fill="#000"/></svg>