<svg width="58" height="50" fill="none" xmlns="http://www.w3.org/2000/svg"><path d="M14.521.275c-1.239 1.927-2.982 5.16-2.844 5.298.092.092 6.468.207 14.151.23 12.753.046 13.968.069 14.037.413.046.229-.367 1.078-.872 1.926-.527.872-1.055 1.79-1.17 2.042-.137.275-.366.733-.55 1.032-.16.32-.252.665-.206.757.183.298 13.165.206 13.165-.092 0-.138-.298-.757-.688-1.376-.39-.597-.688-1.193-.688-1.308 0-.091-.298-.619-.688-1.124-.367-.527-.688-1.032-.688-1.1 0-.092-.436-.895-.986-1.79a40.79 40.79 0 01-1.147-1.972 10.91 10.91 0 00-.62-1.032c-.252-.39-.573-.94-.688-1.262-.137-.298-.39-.642-.527-.734C43.352.092 36.815 0 28.97 0 17.8 0 14.659.069 14.52.275zM7.434 12.684c-.184.114-.436.412-.574.688-.114.275-.298.665-.435.848-.643.986-2.294 3.853-2.294 3.991 0 .092-.183.436-.436.78-.229.344-1.009 1.651-1.743 2.913C1.218 23.165.53 24.22.416 24.266c-.322.138-.207.826.32 1.651.964 1.514 1.079 1.72 1.308 2.225.413.918 1.399 2.363 1.605 2.363.115 0 .46-.505.78-1.101 1.124-2.133 3.83-6.835 4.542-7.89.252-.344.435-.688.435-.757 0-.069.78-1.422 1.72-3.005.94-1.582 1.72-2.935 1.72-3.027 0-.069.276-.528.597-1.01.344-.481.55-.963.459-1.054-.252-.23-6.055-.207-6.468.023zm15.321-.07c-1.032.115-1.032.115-2.133 2.294-.275.574-.849 1.537-1.239 2.18-.412.618-1.078 1.765-1.49 2.522-.413.757-.872 1.537-1.01 1.72-.137.184-.458.711-.71 1.147a197.547 197.547 0 01-1.95 3.44c-.826 1.4-1.422 2.432-4.083 7.065L7.526 37.5l.412.803a80.3 80.3 0 001.377 2.408c.504.872 1.009 1.835 1.1 2.11.092.298.253.528.345.528.091 0 .39.435.688.963.275.55.71 1.284.963 1.674.23.367.573.986.757 1.376.183.367.642 1.124 1.032 1.675l.71.963h28.464l.39-.688c.207-.367.459-.688.573-.688.092 0 .161-.115.161-.252 0-.138.344-.85.78-1.56.413-.711 1.055-1.812 1.399-2.431.344-.642 1.33-2.34 2.179-3.785 5.23-8.922 5.137-8.738 4.794-8.968-.184-.114-.62-.16-.987-.091s-1.72.114-3.004.114h-2.363l-1.422 2.454a484.394 484.394 0 01-3.348 5.734c-1.055 1.79-1.927 3.35-1.927 3.487 0 .688-1.055.757-11.766.734-5.94-.023-10.803-.046-10.826-.092-.596-.757-3.555-6.101-3.555-6.376 0-.23.459-1.193 1.032-2.11.574-.94 1.032-1.79 1.032-1.858 0-.092.253-.505.574-.918.32-.412.573-.825.573-.917 0-.092.528-1.032 1.147-2.11.642-1.078 1.147-1.973 1.147-2.018 0-.092 2.614-4.565 3.555-6.056.344-.527.871-1.444 1.17-2.04.32-.597 1.1-1.927 1.72-2.982.619-1.055 1.124-1.973 1.124-2.065 0-.069.275-.481.596-.917.321-.436.527-.849.459-.94-.184-.184-4.427-.207-5.826-.046z" fill="#d7d7d7"/><path d="M32.594 19.472c-.32.367-.848 1.17-1.17 1.766-.756 1.491-1.444 2.73-7.132 12.523-.505.826-.895 1.606-.895 1.697 0 .092-.23.413-.481.689-.62.665-.436 1.353.32 1.146.276-.068 3.35-.137 6.835-.137h6.308l.505-.986c.642-1.239 1.444-2.638 1.972-3.418.71-1.078.505-1.17-2.867-1.193-3.005-.023-3.073-.023-3.142-.527-.046-.321.39-1.307 1.124-2.523.665-1.101 1.399-2.385 1.628-2.867l.413-.872h10.78c6.766 0 10.78-.091 10.78-.229 0-.252-2.661-4.77-3.166-5.344-.32-.367-1.078-.39-10.78-.39l-10.435.023-.597.642z" fill="#d7d7d7"/></svg>