<svg width="128" height="100" fill="none" xmlns="http://www.w3.org/2000/svg"><path d="M109.974 57.449c-4.427.026-8.261 1.146-11.476 2.813-1.188-2.474-2.375-4.636-2.572-6.25-.223-1.876-.495-3.022-.223-5.26.272-2.24 1.509-5.418 1.509-5.678-.025-.235-.273-1.38-2.82-1.407-2.547-.026-4.749.521-4.996 1.224a31.14 31.14 0 00-1.064 3.985c-.445 2.448-5.095 11.12-7.741 15.677-.866-1.771-1.608-3.333-1.756-4.584-.223-1.874-.495-3.02-.223-5.26.272-2.24 1.509-5.417 1.509-5.677-.025-.234-.272-1.38-2.82-1.406-2.547-.026-4.748.52-4.996 1.224-.247.703-.519 2.37-1.063 3.984-.52 1.615-6.703 16.094-8.31 19.87a82.362 82.362 0 01-2.053 4.505c-.52 1.042-.025.078-.075.182l-.692 1.38v.027c-.346.651-.718 1.276-.89 1.276-.125 0-.372-1.745.048-4.14.916-5.027 3.142-12.865 3.117-13.152 0-.13.42-1.51-1.435-2.213-1.805-.703-2.448.468-2.597.468-.148 0-.272.417-.272.417s2.004-8.828-3.833-8.828c-3.66 0-8.706 4.193-11.204 8.021-1.583.912-4.947 2.838-8.509 4.896-1.36.781-2.77 1.615-4.105 2.37l-.272-.313c-7.074-7.943-20.158-13.568-19.614-24.245.198-3.88 1.484-14.115 25.13-26.51 19.366-10.157 34.873-7.37 37.57-1.172 3.833 8.854-8.287 25.312-28.42 27.682-7.666.911-11.698-2.214-12.712-3.385-1.064-1.224-1.212-1.276-1.608-1.042-.643.364-.247 1.458 0 2.11.594 1.64 3.067 4.557 7.272 6.015 3.685 1.276 12.688 1.98 23.57-2.448 12.194-4.974 21.716-18.776 18.922-30.312C77.425.548 58.925-3.307 41.438 3.23c-10.413 3.906-21.69 10-29.803 17.995C1.989 30.704.455 38.985 1.098 42.423c2.251 12.265 18.303 20.26 24.733 26.172-.321.182-.618.364-.89.52-3.215 1.667-15.458 8.412-18.525 15.547-3.463 8.073.544 13.88 3.215 14.662 8.261 2.422 16.72-1.927 21.296-9.089 4.55-7.161 4.006-16.458 1.904-20.703l-.075-.156 2.523-1.563a149.82 149.82 0 014.65-2.76c-.791 2.265-1.36 4.948-1.657 8.854-.346 4.583 1.435 10.52 3.785 12.864 1.038 1.016 2.275 1.042 3.042 1.042 2.72 0 3.957-2.37 5.317-5.208 1.682-3.464 3.166-7.474 3.166-7.474s-1.855 10.86 3.215 10.86c1.856 0 3.71-2.527 4.551-3.829v.026s.05-.078.149-.26a9.51 9.51 0 00.297-.495v-.052c.742-1.354 2.399-4.453 4.872-9.583 3.19-6.615 6.258-14.896 6.258-14.896s.296 2.031 1.211 5.364c.544 1.98 1.731 4.141 2.647 6.25a100.72 100.72 0 01-1.188 1.72l.025.025a73.409 73.409 0 01-1.954 2.605c-2.522 3.177-5.54 6.797-5.935 7.838-.47 1.224-.371 2.136.544 2.865.668.52 1.855.625 3.116.52 2.275-.156 3.859-.754 4.65-1.12a15.834 15.834 0 004.007-2.213c2.473-1.927 3.982-4.66 3.833-8.307-.074-2.005-.692-3.984-1.459-5.86.223-.338.445-.677.668-1.04 3.908-6.017 6.925-12.631 6.925-12.631s.297 2.031 1.212 5.365c.47 1.692 1.41 3.541 2.25 5.364-3.66 3.152-5.96 6.797-6.751 9.193-1.46 4.427-.322 6.432 1.83 6.901.964.209 2.35-.26 3.388-.729a15.08 15.08 0 004.28-2.318c2.473-1.927 4.847-4.61 4.723-8.229-.074-1.666-.494-3.307-1.063-4.87 3.116-1.354 7.147-2.135 12.267-1.484 11.007 1.354 13.183 8.594 12.763 11.614-.42 3.022-2.721 4.688-3.488 5.209-.766.495-1.014.677-.939 1.041.098.548.445.521 1.113.418.915-.157 5.787-2.475 5.985-8.047.297-7.163-6.159-14.975-17.61-14.897zm-84.885 30.13c-3.635 4.193-8.755 5.781-10.932 4.427-2.35-1.432-1.434-7.604 3.043-12.057 2.72-2.709 6.257-5.209 8.582-6.745.52-.339 1.31-.833 2.25-1.432.15-.104.248-.157.248-.157.173-.104.371-.234.569-.364 1.657 6.354.074 11.927-3.76 16.328zm26.589-19.036c-1.262 3.255-3.933 11.614-5.54 11.145-1.386-.39-2.227-6.718-.273-12.968.99-3.152 3.092-6.901 4.328-8.36 2.004-2.344 4.18-3.125 4.725-2.161.643 1.25-2.449 10.312-3.24 12.344zm21.938 11.041c-.544.287-1.039.495-1.261.339-.174-.104.222-.495.222-.495s2.745-3.099 3.834-4.531c.618-.833 1.36-1.797 2.151-2.89v.312c0 3.75-3.412 6.25-4.946 7.265zm16.917-4.062c-.395-.313-.346-1.276.99-4.297.52-1.198 1.706-3.203 3.76-5.104.246.78.395 1.536.37 2.24-.024 4.687-3.19 6.431-5.12 7.16z" fill="#CF649A"/></svg>